<svg width="2579" height="1981" viewBox="0 0 2579 1981" fill="none" xmlns="http://www.w3.org/2000/svg">
<g filter="url(#filter0_f_36_5)">
<path fillRule="evenodd" clipRule="evenodd" d="M1434.09 695.986C1533.52 709.494 1657.99 726.687 1691.31 821.343C1726.98 922.64 1655.13 1030.82 1578.44 1106C1506.36 1176.66 1405.39 1216.99 1306.07 1198.99C1216.38 1182.73 1157.42 1103.12 1115.64 1022.11C1080.8 954.554 1060.87 868.816 1103.26 805.727C1140.09 750.921 1224.73 787.267 1287.41 766.478C1341.58 748.509 1377.53 688.304 1434.09 695.986Z" fill="#99AACC"/>
<path d="M415.768 1031.01C265.658 1164.38 439.072 1557.3 635.68 1470.58C832.288 1383.86 913.025 1534.12 913.025 1534.12C1085.84 1567.01 1088.27 1746.88 1439.92 1470.58C1791.58 1194.28 1480.42 991.393 1228.49 961.491C1079.73 909.909 888.824 885.39 885.236 1056.43C880.75 1270.23 603.406 864.308 415.768 1031.01Z" fill="#A2B9EE"/>
<path d="M1457.91 1181.21C1341.06 1285.08 1304.86 1418.82 1457.91 1351.28C1610.96 1283.74 1673.82 1400.77 1673.82 1400.77C1808.35 1426.39 1801.2 1294.16 1974.04 1330.85C2314.6 1403.12 2060.75 1121.23 1864.63 1097.94C1748.82 1057.77 1695.28 862.131 1545.72 954.763C1404.17 1042.43 1603.98 1051.36 1457.91 1181.21Z" fill="#A2DCEE"/>
<path d="M1391.16 710.396C1241.05 843.76 1564.81 693.049 1641.81 770.048C1718.81 847.046 1577.52 1055.62 1577.52 1055.62C1750.34 1088.51 1691.59 756.591 1913.62 803.688C2351.1 896.486 2260.79 500.926 2008.86 471.024C1860.1 419.442 1769.64 288.551 1577.52 407.481C1395.69 520.039 1578.79 543.69 1391.16 710.396Z" fill="#ADEEE2"/>
</g>
<defs>
<filter id="filter0_f_36_5" x="0.171326" y="0.171326" width="2578.43" height="1980.66" filterUnits="userSpaceOnUse" colorInterpolationFilters="sRGB">
<feFlood floodOpacity="0" result="BackgroundImageFix"/>
<feBlend mode="normal" in="SourceGraphic" in2="BackgroundImageFix" result="shape"/>
<feGaussianBlur stdDeviation="179.414" result="effect1_foregroundBlur_36_5"/>
</filter>
</defs>
</svg>
