<svg width="65" height="50" viewBox="0 0 65 50" fill="none" xmlns="http://www.w3.org/2000/svg">
<path d="M55.2066 4.36224C51.0606 2.42243 46.6275 1.01265 41.9928 0.209915C41.4236 1.239 40.7586 2.62314 40.3001 3.72421C35.3733 2.98328 30.4918 2.98328 25.6556 3.72421C25.1973 2.62314 24.5172 1.239 23.9429 0.209915C19.3032 1.01265 14.865 2.42761 10.719 4.37252C2.35645 17.0094 0.0894998 29.3324 1.22297 41.4804C6.76945 45.6224 12.1446 48.1385 17.4291 49.785C18.7339 47.9893 19.8976 46.0803 20.9001 44.0685C18.9908 43.3431 17.1621 42.4478 15.4343 41.4084C15.8927 41.0688 16.341 40.7138 16.7742 40.3484C27.313 45.2777 38.7637 45.2777 49.1765 40.3484C49.6148 40.7138 50.0631 41.0688 50.5165 41.4084C48.7835 42.4529 46.9499 43.3482 45.0406 44.0737C46.0431 46.0804 47.2018 47.9944 48.5115 49.7901C53.8011 48.1436 59.1813 45.6276 64.7278 41.4804C66.0577 27.3978 62.4558 15.1879 55.2066 4.36224ZM22.3358 34.0095C19.1722 34.0095 16.5778 31.0561 16.5778 27.4595C16.5778 23.8629 19.1168 20.9044 22.3358 20.9044C25.5549 20.9044 28.1493 23.8577 28.0939 27.4595C28.0989 31.0561 25.5549 34.0095 22.3358 34.0095ZM43.6149 34.0095C40.4513 34.0095 37.8569 31.0561 37.8569 27.4595C37.8569 23.8629 40.3958 20.9044 43.6149 20.9044C46.834 20.9044 49.4284 23.8577 49.373 27.4595C49.373 31.0561 46.834 34.0095 43.6149 34.0095Z" fill="#EAEBEF"/>
</svg>
