<svg width="49" height="52" viewBox="0 0 49 52" fill="none" xmlns="http://www.w3.org/2000/svg">
<path d="M18.4786 43.0518C7.13096 46.4561 7.13096 37.378 2.59192 36.2433M34.3652 49.8604V41.0773C34.4504 39.9952 34.3042 38.9072 33.9363 37.8859C33.5685 36.8646 32.9875 35.9333 32.2319 35.1539C39.3582 34.3596 46.8476 31.6588 46.8476 19.2672C46.847 16.0986 45.6282 13.0515 43.4433 10.7565C44.4779 7.98432 44.4047 4.92011 43.2391 2.20043C43.2391 2.20043 40.561 1.40609 34.3652 5.55932C29.1635 4.14954 23.6803 4.14954 18.4786 5.55932C12.2828 1.40609 9.60474 2.20043 9.60474 2.20043C8.43906 4.92011 8.36591 7.98432 9.40049 10.7565C7.19934 13.0685 5.97923 16.1432 5.9962 19.3353C5.9962 31.6361 13.4856 34.3369 20.6119 35.222C19.8652 35.9935 19.2894 36.9137 18.9218 37.9225C18.5543 38.9314 18.4032 40.0063 18.4786 41.0773V49.8604" stroke="#EAEBEF" stroke-width="4" stroke-linecap="round" stroke-linejoin="round"/>
</svg>
