<svg width="60" height="60" viewBox="0 0 60 60" fill="none" xmlns="http://www.w3.org/2000/svg">
<path d="M41.82 19.3158C46.3634 19.3158 50.7208 21.2455 53.9334 24.6804C57.1461 28.1152 58.951 32.7739 58.951 37.6316V59H47.5303V37.6316C47.5303 36.0124 46.9287 34.4595 45.8578 33.3145C44.7869 32.1695 43.3345 31.5263 41.82 31.5263C40.3055 31.5263 38.8531 32.1695 37.7822 33.3145C36.7113 34.4595 36.1096 36.0124 36.1096 37.6316V59H24.689V37.6316C24.689 32.7739 26.4938 28.1152 29.7065 24.6804C32.9192 21.2455 37.2766 19.3158 41.82 19.3158Z" stroke="#EAEBEF" stroke-width="2" stroke-linecap="round" stroke-linejoin="round"/>
<path d="M13.2683 22.3684H1.8476V59H13.2683V22.3684Z" stroke="#EAEBEF" stroke-width="2" stroke-linecap="round" stroke-linejoin="round"/>
<path d="M7.55794 13.2105C10.7117 13.2105 13.2683 10.4771 13.2683 7.10526C13.2683 3.73342 10.7117 1 7.55794 1C4.4042 1 1.8476 3.73342 1.8476 7.10526C1.8476 10.4771 4.4042 13.2105 7.55794 13.2105Z" stroke="#EAEBEF" stroke-width="2" stroke-linecap="round" stroke-linejoin="round"/>
</svg>
